<svg width="21" height="18" viewBox="0 0 21 18" fill="none" xmlns="http://www.w3.org/2000/svg">
<path d="M18.8413 4.82288C18.8547 5.00942 18.8547 5.196 18.8547 5.38254C18.8547 11.0722 14.5241 17.6281 6.60913 17.6281C4.17067 17.6281 1.90546 16.9218 0 15.696C0.346459 15.7359 0.679547 15.7493 1.03934 15.7493C3.05136 15.7493 4.90354 15.0697 6.3826 13.9105C4.49047 13.8705 2.90481 12.6313 2.35848 10.9257C2.625 10.9656 2.89148 10.9923 3.17133 10.9923C3.55774 10.9923 3.94419 10.939 4.30393 10.8457C2.33186 10.446 0.852756 8.71374 0.852756 6.62174V6.56846C1.4257 6.88826 2.092 7.08813 2.79817 7.11475C1.6389 6.34189 0.879416 5.02275 0.879416 3.53035C0.879416 2.73088 1.09257 1.99801 1.46569 1.35841C3.58436 3.97008 6.76901 5.67563 10.34 5.86222C10.2734 5.54242 10.2334 5.20933 10.2334 4.8762C10.2334 2.50435 12.1522 0.572266 14.5374 0.572266C15.7766 0.572266 16.8959 1.09193 17.682 1.9314C18.6547 1.74486 19.5875 1.38507 20.4136 0.892064C20.0938 1.89145 19.4143 2.73092 18.5215 3.26388C19.3876 3.17065 20.2271 2.93075 20.9999 2.59766C20.4137 3.45041 19.6808 4.2099 18.8413 4.82288Z" fill="#3EA1D1"/>
</svg>
