<svg width="18" height="20" viewBox="0 0 18 20" fill="none" xmlns="http://www.w3.org/2000/svg">
<path d="M9.00382 5.11364C6.44846 5.11364 4.3873 7.33798 4.3873 10.0956C4.3873 12.8533 6.44846 15.0776 9.00382 15.0776C11.5592 15.0776 13.6203 12.8533 13.6203 10.0956C13.6203 7.33798 11.5592 5.11364 9.00382 5.11364ZM9.00382 13.3346C7.35248 13.3346 6.00248 11.882 6.00248 10.0956C6.00248 8.30922 7.34846 6.85669 9.00382 6.85669C10.6592 6.85669 12.0052 8.30922 12.0052 10.0956C12.0052 11.882 10.6552 13.3346 9.00382 13.3346ZM14.886 4.90985C14.886 5.55591 14.4038 6.07188 13.8092 6.07188C13.2105 6.07188 12.7324 5.55157 12.7324 4.90985C12.7324 4.26813 13.2145 3.74782 13.8092 3.74782C14.4038 3.74782 14.886 4.26813 14.886 4.90985ZM17.9436 6.08923C17.8752 4.53263 17.5458 3.1538 16.4891 2.01778C15.4364 0.881767 14.1587 0.526221 12.7163 0.448174C11.2297 0.357119 6.77391 0.357119 5.2873 0.448174C3.84891 0.521885 2.57123 0.877431 1.51453 2.01345C0.457833 3.14946 0.132387 4.52829 0.0600655 6.08489C-0.0243095 7.68919 -0.0243095 12.4977 0.0600655 14.102C0.128369 15.6586 0.457833 17.0375 1.51453 18.1735C2.57123 19.3095 3.84489 19.665 5.2873 19.7431C6.77391 19.8341 11.2297 19.8341 12.7163 19.7431C14.1587 19.6694 15.4364 19.3138 16.4891 18.1735C17.5418 17.0375 17.8712 15.6586 17.9436 14.102C18.0279 12.4977 18.0279 7.69352 17.9436 6.08923ZM16.023 15.8234C15.7096 16.6732 15.1029 17.328 14.3114 17.6705C13.1261 18.1778 10.3136 18.0607 9.00382 18.0607C7.694 18.0607 4.87748 18.1735 3.69623 17.6705C2.90873 17.3323 2.30203 16.6776 1.98462 15.8234C1.51453 14.5443 1.62301 11.5091 1.62301 10.0956C1.62301 8.68212 1.51855 5.64262 1.98462 4.36786C2.29801 3.51802 2.90471 2.86329 3.69623 2.52075C4.88149 2.01345 7.694 2.13052 9.00382 2.13052C10.3136 2.13052 13.1302 2.01778 14.3114 2.52075C15.0989 2.85895 15.7056 3.51368 16.023 4.36786C16.4931 5.64696 16.3846 8.68212 16.3846 10.0956C16.3846 11.5091 16.4931 14.5486 16.023 15.8234Z" fill="#3EA1D1"/>
</svg>
